<?xml version="1.0" encoding="UTF-8"?>
<svg xmlns="http://www.w3.org/2000/svg" xmlns:xlink="http://www.w3.org/1999/xlink" width="418pt" height="153pt" viewBox="0 0 418 153" version="1.1">
<defs>
<linearGradient id="linear0" gradientUnits="userSpaceOnUse" x1="403.22046" y1="77.371773" x2="403.22046" y2="323.4017" gradientTransform="matrix(1,0,0,1,0.000000000000001776,0.000000000000001776)">
<stop offset="0" style="stop-color:rgb(29.019608%,74.901961%,100%);stop-opacity:1;"/>
<stop offset="1" style="stop-color:rgb(0%,0%,79.607843%);stop-opacity:1;"/>
</linearGradient>
<linearGradient id="linear1" gradientUnits="userSpaceOnUse" x1="396.62875" y1="80.056175" x2="396.62875" y2="328.5108" gradientTransform="matrix(1,0,0,1,0.000000000000001776,0.000000000000001776)">
<stop offset="0" style="stop-color:rgb(29.019608%,74.901961%,100%);stop-opacity:1;"/>
<stop offset="1" style="stop-color:rgb(0%,0%,79.607843%);stop-opacity:1;"/>
</linearGradient>
</defs>
<g id="surface1">
<path style="fill-rule:nonzero;fill:url(#linear0);stroke-width:5;stroke-linecap:butt;stroke-linejoin:round;stroke:rgb(0%,0%,0%);stroke-opacity:1;stroke-miterlimit:4;" d="M 637.34294 36.058339 C 633.46552 36.058339 630.345081 39.185145 630.345081 43.060031 L 630.345081 43.58957 C 630.345081 47.472861 633.46552 50.591262 637.34294 50.591262 L 893.933936 50.591262 C 897.811356 50.591262 900.940206 47.472861 900.940206 43.58957 L 900.940206 43.060031 C 900.940206 39.185145 897.811356 36.058339 893.933936 36.058339 Z M 61.062459 36.310501 C 57.185039 36.310501 54.064599 39.437307 54.064599 43.312193 L 54.064599 43.345814 C 54.064599 47.2207 57.185039 50.347506 61.062459 50.347506 L 389.844116 50.347506 C 393.721536 50.347506 396.841976 47.2207 396.841976 43.345814 L 396.841976 43.312193 C 396.841976 39.437307 393.721536 36.310501 389.844116 36.310501 Z M 56.562633 291.750359 C 52.685213 291.750359 49.564773 294.398058 49.564773 297.684566 C 49.564773 300.971074 52.685213 303.627178 56.562633 303.627178 L 894.001223 303.627178 C 897.878643 303.627178 900.999083 300.971074 900.999083 297.684566 C 900.999083 294.398058 897.878643 291.750359 894.001223 291.750359 Z M 56.562633 291.750359 " transform="matrix(0.464428,0,0,0.464731,-4.929411,-6.015257)"/>
<path style="fill-rule:evenodd;fill:rgb(100%,100%,100%);fill-opacity:1;stroke-width:5;stroke-linecap:butt;stroke-linejoin:miter;stroke:rgb(0%,0%,0%);stroke-opacity:1;stroke-miterlimit:4;" d="M 262.158408 37.747823 C 252.81391 38.22693 243.570343 47.464456 253.747519 62.720242 L 215.688245 99.779615 L 229.784895 116.84256 L 267.591842 78.034866 C 292.479663 92.206357 302.093309 53.163312 275.027068 53.844149 C 276.759711 42.320356 269.417005 37.377986 262.158408 37.747823 Z M 47.596625 40.219008 C 40.884736 40.58044 34.711143 45.606865 36.309212 56.315334 C 9.242971 55.634497 18.831385 94.669137 43.719206 80.497646 L 81.534563 119.313746 L 95.622803 102.2508 L 57.563529 65.191427 C 68.312645 49.086697 57.403722 39.681063 47.596625 40.219008 Z M 80.533667 234.904694 L 42.751953 273.687172 C 17.864132 259.515681 8.250486 298.583943 35.308316 297.903106 C 31.37202 324.254009 74.69651 316.109185 56.596277 289.001796 L 94.621907 251.934018 Z M 229.784895 236.871556 L 215.688245 253.934501 L 253.747519 291.002279 C 235.647285 318.109668 278.971775 326.220871 275.027068 299.878373 C 302.093309 300.550804 292.479663 261.482543 267.591842 275.654034 Z M 229.784895 236.871556 " transform="matrix(0.464428,0,0,0.464731,-4.929411,-6.015257)"/>
<path style="fill-rule:evenodd;fill:rgb(0%,5.098039%,50.980392%);fill-opacity:1;stroke-width:2.5;stroke-linecap:butt;stroke-linejoin:miter;stroke:rgb(0%,0%,0%);stroke-opacity:1;stroke-miterlimit:4;" d="M 482.010639 24.05544 L 492.499018 24.05544 C 492.541073 25.610437 492.541073 27.493245 492.499018 28.964189 C 492.776578 51.280504 480.50509 64.838401 451.966943 64.241618 L 451.966943 54.104716 C 470.058766 53.718068 481.951763 48.473103 482.010639 28.964189 C 482.052694 27.417597 482.094748 25.786951 482.010639 24.05544 Z M 482.010639 24.05544 " transform="matrix(0.464428,0,0,0.464731,-4.929411,-6.015257)"/>
<path style="fill-rule:evenodd;fill:rgb(0%,5.098039%,50.980392%);fill-opacity:1;stroke-width:2.5;stroke-linecap:butt;stroke-linejoin:miter;stroke:rgb(0%,0%,0%);stroke-opacity:1;stroke-miterlimit:4;" d="M 495.123216 18.810475 L 495.123216 55.340308 C 495.156859 60.265868 499.824903 64.552618 504.375194 64.594645 L 534.561875 64.594645 L 534.561875 54.903228 L 508.59746 54.903228 C 506.873228 54.920039 506.368574 53.844149 506.469505 51.120802 L 506.469505 37.159446 L 535.436607 37.159446 L 535.436607 25.938248 L 531.441435 25.938248 C 530.785386 27.199056 529.481698 28.064812 527.967738 28.064812 C 526.453778 28.064812 525.158501 27.199056 524.502451 25.938248 L 506.469505 25.938248 L 506.469505 18.810475 Z M 495.123216 18.810475 " transform="matrix(0.464428,0,0,0.464731,-4.929411,-6.015257)"/>
<path style="fill-rule:nonzero;fill:rgb(0%,5.098039%,50.980392%);fill-opacity:1;stroke-width:2.5;stroke-linecap:butt;stroke-linejoin:miter;stroke:rgb(0%,0%,0%);stroke-opacity:1;stroke-miterlimit:4;" d="M 535.907617 32.570102 L 535.907617 44.438515 L 577.27237 44.438515 L 577.27237 32.570102 Z M 535.907617 32.570102 " transform="matrix(0.464428,0,0,0.464731,-4.929411,-6.015257)"/>
<path style="fill-rule:nonzero;fill:rgb(0%,5.098039%,50.980392%);fill-opacity:1;stroke-width:2.5;stroke-linecap:butt;stroke-linejoin:miter;stroke:rgb(0%,0%,0%);stroke-opacity:1;stroke-miterlimit:4;" d="M 527.967738 17.154613 C 524.157605 17.154613 521.062398 20.29823 521.062398 24.156305 C 521.062398 28.014379 524.157605 31.124374 527.967738 31.124374 C 531.777871 31.124374 534.873078 28.014379 534.873078 24.156305 C 534.873078 20.29823 531.777871 17.154613 527.967738 17.154613 Z M 527.967738 20.155338 C 530.146158 20.155338 531.904034 21.954092 531.904034 24.156305 C 531.904034 26.358517 530.146158 28.157271 527.967738 28.157271 C 525.797728 28.157271 524.031442 26.358517 524.031442 24.156305 C 524.031442 21.954092 525.797728 20.155338 527.967738 20.155338 Z M 527.967738 20.155338 " transform="matrix(0.464428,0,0,0.464731,-4.929411,-6.015257)"/>
<path style="fill-rule:evenodd;fill:rgb(0%,5.098039%,50.980392%);fill-opacity:1;stroke-width:2.5;stroke-linecap:butt;stroke-linejoin:miter;stroke:rgb(0%,0%,0%);stroke-opacity:1;stroke-miterlimit:4;" d="M 407.414463 18.465854 L 407.414463 39.08428 L 417.894431 39.08428 L 417.894431 29.300404 L 436.591838 29.300404 C 436.675947 53.02042 421.376539 54.457742 409.332146 54.457742 L 409.332146 64.939266 C 417.255204 64.939266 447.425063 65.695751 447.248435 29.300404 C 447.231613 25.644059 447.248435 22.130605 447.248435 18.465854 Z M 407.414463 18.465854 " transform="matrix(0.464428,0,0,0.464731,-4.929411,-6.015257)"/>
<path style="fill-rule:evenodd;fill:rgb(0%,5.098039%,50.980392%);fill-opacity:1;stroke-width:2.5;stroke-linecap:butt;stroke-linejoin:miter;stroke:rgb(0%,0%,0%);stroke-opacity:1;stroke-miterlimit:4;" d="M 449.864221 18.465854 L 449.864221 28.602757 L 474.323087 28.602757 C 474.323087 24.946411 474.323087 22.416388 474.323087 18.465854 Z M 449.864221 18.465854 " transform="matrix(0.464428,0,0,0.464731,-4.929411,-6.015257)"/>
<path style="fill-rule:evenodd;fill:rgb(0%,5.098039%,50.980392%);fill-opacity:1;stroke-width:2.5;stroke-linecap:butt;stroke-linejoin:miter;stroke:rgb(0%,0%,0%);stroke-opacity:1;stroke-miterlimit:4;" d="M 580.737656 21.710335 L 612.488763 21.710335 L 612.488763 31.595076 C 612.606515 36.629906 611.218719 40.429143 609.52813 44.068678 C 612.37101 49.37248 615.785831 52.894339 619.284761 54.575418 L 619.284761 65.199833 C 614.061599 63.10689 608.787972 60.938299 604.582527 52.104232 C 597.13889 61.896514 587.727105 65.300698 577.65086 64.577834 L 577.65086 54.449337 C 579.400325 54.390499 579.25734 54.474553 581.578745 54.449337 C 587.054234 54.449337 602.454572 42.942355 601.495731 31.595076 L 580.737656 31.595076 Z M 580.737656 21.710335 " transform="matrix(0.464428,0,0,0.464731,-4.929411,-6.015257)"/>
<path style="fill-rule:evenodd;fill:rgb(75.294118%,30.196078%,0%);fill-opacity:1;stroke-width:5;stroke-linecap:butt;stroke-linejoin:miter;stroke:rgb(0%,0%,0%);stroke-opacity:1;stroke-miterlimit:4;" d="M 298.047672 290.657658 C 302.95122 286.925664 361.137751 256.615821 400.778272 290.657658 C 427.970677 314.016242 449.342746 304.291204 449.342746 304.291204 L 479.394853 303.585151 C 459.721783 316.025131 436.314279 333.5924 388.893686 298.693213 C 371.525199 285.917017 348.344789 281.3697 324.600849 290.657658 C 322.523359 290.657658 298.047672 290.657658 298.047672 290.657658 Z M 298.047672 290.657658 " transform="matrix(0.464428,0,0,0.464731,-4.929411,-6.015257)"/>
<path style="fill:none;stroke-width:5;stroke-linecap:butt;stroke-linejoin:miter;stroke:rgb(0%,0%,0%);stroke-opacity:1;stroke-miterlimit:4;" d="M 319.016018 281.57143 C 319.016018 282.042132 319.016018 282.042132 319.016018 281.57143 Z M 319.016018 281.57143 " transform="matrix(0.464428,0,0,0.464731,-4.929411,-6.015257)"/>
<path style="fill:none;stroke-width:5;stroke-linecap:butt;stroke-linejoin:miter;stroke:rgb(0%,0%,0%);stroke-opacity:1;stroke-miterlimit:4;" d="M 319.360865 281.226809 C 318.915088 281.563024 319.613192 279.957594 319.016018 282.97513 " transform="matrix(0.464428,0,0,0.464731,-4.929411,-6.015257)"/>
<path style="fill:none;stroke-width:5;stroke-linecap:butt;stroke-linejoin:miter;stroke:rgb(0%,0%,0%);stroke-opacity:1;stroke-miterlimit:4;" d="M 319.016018 290.657658 L 319.714122 281.924456 " transform="matrix(0.464428,0,0,0.464731,-4.929411,-6.015257)"/>
<path style="fill:none;stroke-width:5;stroke-linecap:butt;stroke-linejoin:miter;stroke:rgb(0%,0%,0%);stroke-opacity:1;stroke-miterlimit:4;" d="M 331.245451 276.679492 L 332.288402 289.262363 " transform="matrix(0.464428,0,0,0.464731,-4.929411,-6.015257)"/>
<path style="fill:none;stroke-width:5;stroke-linecap:butt;stroke-linejoin:miter;stroke:rgb(0%,0%,0%);stroke-opacity:1;stroke-miterlimit:4;" d="M 344.871092 286.816394 L 345.569196 275.284197 " transform="matrix(0.464428,0,0,0.464731,-4.929411,-6.015257)"/>
<path style="fill:none;stroke-width:5;stroke-linecap:butt;stroke-linejoin:miter;stroke:rgb(0%,0%,0%);stroke-opacity:1;stroke-miterlimit:4;" d="M 357.100525 274.939576 L 356.049163 286.118747 " transform="matrix(0.464428,0,0,0.464731,-4.929411,-6.015257)"/>
<path style="fill:none;stroke-width:5;stroke-linecap:butt;stroke-linejoin:miter;stroke:rgb(0%,0%,0%);stroke-opacity:1;stroke-miterlimit:4;" d="M 366.184285 288.564716 C 366.184285 288.094014 366.184285 288.094014 366.184285 288.564716 Z M 366.184285 288.564716 " transform="matrix(0.464428,0,0,0.464731,-4.929411,-6.015257)"/>
<path style="fill:none;stroke-width:5;stroke-linecap:butt;stroke-linejoin:miter;stroke:rgb(0%,0%,0%);stroke-opacity:1;stroke-miterlimit:4;" d="M 373.871838 276.334871 L 366.529131 287.514042 " transform="matrix(0.464428,0,0,0.464731,-4.929411,-6.015257)"/>
<path style="fill:none;stroke-width:5;stroke-linecap:butt;stroke-linejoin:miter;stroke:rgb(0%,0%,0%);stroke-opacity:1;stroke-miterlimit:4;" d="M 376.664253 290.657658 L 386.446117 282.622104 " transform="matrix(0.464428,0,0,0.464731,-4.929411,-6.015257)"/>
<path style="fill:none;stroke-width:5;stroke-linecap:butt;stroke-linejoin:miter;stroke:rgb(0%,0%,0%);stroke-opacity:1;stroke-miterlimit:4;" d="M 397.632599 288.909337 L 387.144221 295.902623 " transform="matrix(0.464428,0,0,0.464731,-4.929411,-6.015257)"/>
<path style="fill:none;stroke-width:5;stroke-linecap:butt;stroke-linejoin:miter;stroke:rgb(0%,0%,0%);stroke-opacity:1;stroke-miterlimit:4;" d="M 401.123118 306.384146 L 412.309601 297.650944 " transform="matrix(0.464428,0,0,0.464731,-4.929411,-6.015257)"/>
<path style="fill:none;stroke-width:5;stroke-linecap:butt;stroke-linejoin:miter;stroke:rgb(0%,0%,0%);stroke-opacity:1;stroke-miterlimit:4;" d="M 433.269537 305.333472 C 433.151784 305.333472 433.034032 305.333472 433.269537 305.333472 Z M 433.269537 305.333472 " transform="matrix(0.464428,0,0,0.464731,-4.929411,-6.015257)"/>
<path style="fill:none;stroke-width:5;stroke-linecap:butt;stroke-linejoin:miter;stroke:rgb(0%,0%,0%);stroke-opacity:1;stroke-miterlimit:4;" d="M 423.832519 315.470375 L 432.218176 306.03112 " transform="matrix(0.464428,0,0,0.464731,-4.929411,-6.015257)"/>
<path style="fill:none;stroke-width:5;stroke-linecap:butt;stroke-linejoin:miter;stroke:rgb(0%,0%,0%);stroke-opacity:1;stroke-miterlimit:4;" d="M 441.655193 305.333472 L 441.655193 319.664666 " transform="matrix(0.464428,0,0,0.464731,-4.929411,-6.015257)"/>
<path style="fill:none;stroke-width:5;stroke-linecap:butt;stroke-linejoin:miter;stroke:rgb(0%,0%,0%);stroke-opacity:1;stroke-miterlimit:4;" d="M 455.978937 315.117349 C 455.516339 315.117349 455.516339 315.117349 455.978937 315.117349 Z M 455.978937 315.117349 " transform="matrix(0.464428,0,0,0.464731,-4.929411,-6.015257)"/>
<path style="fill:none;stroke-width:5;stroke-linecap:butt;stroke-linejoin:miter;stroke:rgb(0%,0%,0%);stroke-opacity:1;stroke-miterlimit:4;" d="M 455.280834 303.585151 L 454.58273 314.772727 " transform="matrix(0.464428,0,0,0.464731,-4.929411,-6.015257)"/>
<path style="fill-rule:evenodd;fill:url(#linear1);stroke-width:5;stroke-linecap:round;stroke-linejoin:round;stroke:rgb(0%,0%,0%);stroke-opacity:1;stroke-miterlimit:4;" d="M 866.934982 64.014673 L 873.243148 71.360985 C 767.779009 95.955162 760.764328 245.587947 872.528223 275.418683 L 867.649907 284.14348 L 895.246035 276.486168 L 876.027153 257.952279 L 874.967381 267.391534 C 825.713214 246.067055 815.216424 192.894546 815.216424 176.546059 L 840.743473 176.546059 C 840.743473 176.546059 840.743473 186.498043 840.743473 190.171199 C 840.743473 195.710352 849.465565 195.920487 849.465565 190.171199 C 849.465565 185.867638 849.465565 177.235301 849.465565 177.235301 L 857.497964 177.235301 C 860.038053 191.255494 877.583167 197.214917 886.246383 187.153663 C 889.14814 183.774696 891.057412 178.588569 891.057412 171.301094 C 891.057412 163.37481 888.870581 157.802035 885.623977 154.280176 C 876.809365 144.748461 860.164216 150.312831 857.868043 165.358482 L 849.465565 165.358482 C 849.465565 165.358482 849.465565 157.835656 849.465565 153.137042 C 849.465565 146.622864 840.743473 147.3037 840.743473 153.137042 C 840.751884 157.17163 840.743473 165.013861 840.743473 165.013861 L 815.216424 165.013861 C 820.103151 123.726576 844.351744 98.535617 877.086925 80.455619 L 877.086925 90.23109 L 894.186262 71.360985 Z M 154.843873 67.1751 C 93.503258 67.1751 43.719206 116.960236 43.719206 178.29438 C 43.719206 239.628524 93.503258 289.388444 154.843873 289.388444 C 216.176077 289.388444 265.968541 239.628524 265.968541 178.29438 C 265.968541 116.960236 216.176077 67.1751 154.843873 67.1751 Z M 267.246996 72.857145 C 270.50201 76.446247 274.312143 79.522621 274.656989 87.675851 C 277.12138 147.001106 279.611003 205.376553 270.21604 267.542831 C 269.450649 272.628093 264.849892 277.200626 260.812666 277.92349 L 303.809131 277.92349 C 300.385899 259.641762 301.672765 241.360035 304.810027 223.078308 C 308.737912 241.360035 313.725569 259.641762 321.589751 277.92349 L 349.278398 277.92349 C 341.616078 193.844355 347.024279 81.405428 352.247442 72.857145 L 315.180653 72.857145 C 318.359969 97.678267 314.835807 106.050037 313.187272 118.801017 C 309.402372 106.150902 306.189413 97.375673 305.777279 72.857145 Z M 354.711832 72.857145 C 364.52734 80.47243 364.586216 118.826233 364.586216 171.670931 C 364.586216 222.918605 367.46274 271.795959 349.749407 277.92349 C 349.749407 277.92349 438.711382 277.92349 438.711382 277.92349 C 438.711382 277.92349 438.711382 240.763252 438.711382 240.763252 C 423.891395 260.927787 387.060112 252.312261 387.060112 227.516355 C 387.060112 201.888315 387.312438 176.613302 387.312438 176.613302 C 406.724771 171.754985 417.633694 186.212259 421.401772 193.424085 C 421.401772 193.424085 420.90553 149.455481 420.90553 149.455481 C 412.86472 164.980239 394.739254 168.510504 386.807785 168.199505 C 386.807785 168.199505 387.127399 127.668705 387.312438 119.296935 C 388.010542 86.944582 435.464779 86.69242 439.216035 113.362728 L 439.216035 72.857145 Z M 464.902891 72.857145 C 467.089722 73.823765 468.96535 80.153025 469.72233 87.213554 C 471.698889 105.797875 471.808231 137.360122 471.808231 175.133953 C 471.808231 211.428435 469.453182 245.302164 466.98038 264.09662 C 465.895376 272.342309 462.682416 275.124494 459.965699 277.92349 C 459.965699 277.92349 505.931208 277.92349 505.931208 277.92349 C 494.685849 274.779873 495.939072 227.810543 496.30074 220.859284 C 513.248682 220.859284 543.03164 213.46254 543.03164 191.17144 C 543.03164 164.442294 543.469006 143.454031 543.469006 113.362728 C 543.469006 90.432819 531.920856 72.857145 509.186222 72.857145 C 488.201054 72.857145 464.902891 72.857145 464.902891 72.857145 Z M 617.468009 72.857145 C 627.275106 80.47243 627.342393 118.826233 627.342393 171.670931 C 627.342393 222.918605 630.24415 271.795959 612.530817 277.92349 C 612.530817 277.92349 701.467559 277.92349 701.467559 277.92349 C 701.467559 277.92349 701.467559 240.763252 701.467559 240.763252 C 686.639162 260.927787 649.807878 252.312261 649.807878 227.516355 L 649.807878 176.613302 C 667.933344 176.613302 680.415104 187.691608 684.183182 194.903434 L 684.183182 149.455481 C 676.142372 164.980239 665.914731 168.199505 649.807878 168.199505 L 649.807878 119.296935 C 649.807878 86.936176 698.212545 86.69242 701.963802 113.362728 C 701.963802 113.362728 701.963802 72.857145 701.963802 72.857145 C 701.963802 72.857145 617.468009 72.857145 617.468009 72.857145 Z M 747.651752 73.361468 C 727.255345 73.655657 706.900994 86.742852 706.900994 115.043807 L 706.900994 228.953677 C 706.900994 302.727801 788.680069 284.412452 788.680069 236.980826 L 788.680069 193.667842 L 753.371156 193.667842 C 757.955091 202.073234 758.274705 219.842232 758.274705 227.205355 C 758.274705 242.402304 735.901739 246.125892 735.901739 224.044928 L 735.901739 124.827683 C 735.556893 101.61199 757.929858 105.739038 757.929858 114.329348 C 757.929858 122.717929 761.226927 143.386788 754.094493 149.295778 L 788.680069 149.295778 L 788.680069 108.386736 C 788.511851 85.532476 768.048158 73.058874 747.651752 73.361468 Z M 496.30074 94.42538 C 501.456615 94.42538 519.279289 97.022646 519.279289 110.857921 C 519.279289 133.014534 519.279289 152.523449 519.279289 176.546059 C 519.279289 199.871021 501.523902 198.206753 496.30074 198.206753 Z M 873.243148 162.576297 C 876.893474 162.576297 879.837286 166.341913 879.837286 170.956473 C 879.837286 175.562628 876.893474 179.294622 873.243148 179.294622 C 869.601233 179.294622 866.623779 175.562628 866.623779 170.956473 C 866.623779 166.341913 869.601233 162.576297 873.243148 162.576297 Z M 873.243148 162.576297 " transform="matrix(0.464428,0,0,0.464731,-4.929411,-6.015257)"/>
<path style="fill-rule:nonzero;fill:rgb(89.019608%,4.705882%,4.705882%);fill-opacity:1;stroke-width:5;stroke-linecap:butt;stroke-linejoin:round;stroke:rgb(0%,0%,0%);stroke-opacity:1;stroke-miterlimit:4;" d="M 584.219764 70.873472 C 576.952756 70.873472 570.728698 75.555276 568.09609 82.18713 L 549.499614 87.163122 L 566.876511 91.407845 C 567.62508 98.039699 571.754827 103.578852 577.406944 106.092064 L 577.406944 110.815894 C 559.954349 114.119213 546.782897 129.290946 546.782897 147.471808 C 546.782897 158.928357 552.01447 169.182935 560.24873 176.03333 L 552.746217 186.060962 L 559.188958 186.691367 L 552.998544 196.559297 L 564.908363 196.559297 L 557.153523 223.809577 L 568.314773 223.750739 L 570.753931 264.8447 C 550.382757 264.373998 535.024474 294.280382 584.312284 268.030343 C 604.094696 287.942717 622.186518 279.083434 596.684702 265.559158 L 599.283667 223.624658 L 609.031887 223.565821 L 603.47229 196.559297 L 613.935436 196.559297 L 607.753432 186.657745 L 613.935436 186.060962 L 607.341299 177.252112 C 616.475524 170.435339 622.371558 159.626005 622.371558 147.471808 C 622.371558 129.299351 609.183283 114.16124 591.74751 110.841111 L 591.74751 105.722227 C 596.903385 103.116555 600.663053 97.96405 601.504142 91.811303 L 620.159494 86.440258 L 600.435959 82.40567 C 597.853816 75.65614 591.562471 70.873472 584.219764 70.873472 Z M 597.408039 135.905989 C 602.210656 139.705226 605.314274 145.563784 605.314274 152.153611 C 605.314274 158.751844 602.210656 164.601997 597.408039 168.409639 Z M 570.753931 136.721312 L 570.753931 167.594316 C 566.506432 163.795079 563.814947 158.297953 563.814947 152.153611 C 563.814947 146.017675 566.506432 140.520549 570.753931 136.721312 Z M 570.753931 136.721312 " transform="matrix(0.464428,0,0,0.464731,-4.929411,-6.015257)"/>
<path style="fill-rule:evenodd;fill:rgb(100%,100%,100%);fill-opacity:1;stroke-width:5;stroke-linecap:butt;stroke-linejoin:miter;stroke:rgb(0%,0%,0%);stroke-opacity:1;stroke-miterlimit:4;" d="M 181.346585 259.213087 L 192.877914 276.679492 C 164.566861 314.276809 136.625887 307.813063 111.11566 275.637223 L 122.646989 255.716444 Z M 181.346585 259.213087 " transform="matrix(0.464428,0,0,0.464731,-4.929411,-6.015257)"/>
<path style="fill-rule:evenodd;fill:rgb(100%,100%,100%);fill-opacity:1;stroke-width:5;stroke-linecap:butt;stroke-linejoin:miter;stroke:rgb(0%,0%,0%);stroke-opacity:1;stroke-miterlimit:4;" d="M 188.336034 270.636015 C 163.448213 284.857938 134.960531 281.083917 114.959437 267.357912 " transform="matrix(0.464428,0,0,0.464731,-4.929411,-6.015257)"/>
<path style="fill-rule:evenodd;fill:rgb(100%,100%,100%);fill-opacity:1;stroke-width:5;stroke-linecap:butt;stroke-linejoin:miter;stroke:rgb(0%,0%,0%);stroke-opacity:1;stroke-miterlimit:4;" d="M 146.054494 264.458052 L 142.563975 278.78084 " transform="matrix(0.464428,0,0,0.464731,-4.929411,-6.015257)"/>
<path style="fill-rule:evenodd;fill:rgb(100%,100%,100%);fill-opacity:1;stroke-width:5;stroke-linecap:butt;stroke-linejoin:miter;stroke:rgb(0%,0%,0%);stroke-opacity:1;stroke-miterlimit:4;" d="M 163.355693 278.864894 L 160.386649 265.416267 " transform="matrix(0.464428,0,0,0.464731,-4.929411,-6.015257)"/>
<path style="fill-rule:evenodd;fill:rgb(75.294118%,30.196078%,0%);fill-opacity:1;stroke-width:5;stroke-linecap:butt;stroke-linejoin:miter;stroke:rgb(0%,0%,0%);stroke-opacity:1;stroke-miterlimit:4;" d="M 138.720199 264.105025 C 119.198525 278.175651 99.357237 293.322167 76.168416 319.311639 L 77.573034 335.735775 L 73.376001 329.448542 L 70.928432 332.592158 L 68.834121 323.850551 L 62.896033 325.254251 L 62.896033 317.916344 L 53.459015 317.218696 L 54.855223 313.722053 L 48.917135 313.722053 L 67.084656 310.578437 C 83.4943 290.901415 101.703875 274.233523 120.897524 259.213087 Z M 138.720199 264.105025 " transform="matrix(0.464428,0,0,0.464731,-4.929411,-6.015257)"/>
<path style="fill-rule:evenodd;fill:rgb(50.196078%,20%,0%);fill-opacity:1;stroke-width:5;stroke-linecap:butt;stroke-linejoin:miter;stroke:rgb(0%,0%,0%);stroke-opacity:1;stroke-miterlimit:4;" d="M 94.689194 282.622104 L 98.188124 295.549596 " transform="matrix(0.464428,0,0,0.464731,-4.929411,-6.015257)"/>
<path style="fill-rule:evenodd;fill:rgb(50.196078%,20%,0%);fill-opacity:1;stroke-width:5.17823;stroke-linecap:butt;stroke-linejoin:miter;stroke:rgb(0%,0%,0%);stroke-opacity:1;stroke-miterlimit:4;" d="M 110.156819 269.089423 L 113.815556 283.235697 " transform="matrix(0.464428,0,0,0.464731,-4.929411,-6.015257)"/>
<path style="fill-rule:evenodd;fill:rgb(50.196078%,20%,0%);fill-opacity:1;stroke-width:5;stroke-linecap:butt;stroke-linejoin:miter;stroke:rgb(0%,0%,0%);stroke-opacity:1;stroke-miterlimit:4;" d="M 129.283181 270.047637 L 125.784251 260.608382 " transform="matrix(0.464428,0,0,0.464731,-4.929411,-6.015257)"/>
<path style="fill-rule:evenodd;fill:rgb(50.196078%,20%,0%);fill-opacity:1;stroke-width:5;stroke-linecap:butt;stroke-linejoin:miter;stroke:rgb(0%,0%,0%);stroke-opacity:1;stroke-miterlimit:4;" d="M 85.260587 308.477089 L 80.36545 296.953297 " transform="matrix(0.464428,0,0,0.464731,-4.929411,-6.015257)"/>
<path style="fill-rule:evenodd;fill:rgb(50.196078%,20%,0%);fill-opacity:1;stroke-width:5;stroke-linecap:butt;stroke-linejoin:miter;stroke:rgb(0%,0%,0%);stroke-opacity:1;stroke-miterlimit:4;" d="M 76.521673 319.664666 C 74.772208 317.916344 67.437913 310.22541 67.437913 310.22541 " transform="matrix(0.464428,0,0,0.464731,-4.929411,-6.015257)"/>
<path style="fill-rule:evenodd;fill:rgb(75.294118%,30.196078%,0%);fill-opacity:1;stroke-width:5;stroke-linecap:butt;stroke-linejoin:miter;stroke:rgb(0%,0%,0%);stroke-opacity:1;stroke-miterlimit:4;" d="M 166.316326 262.70973 C 236.202404 339.232418 266.53207 325.111359 298.400929 305.686499 L 272.890702 304.635825 C 234.713676 318.613992 201.658882 275.443899 183.087639 259.213087 Z M 166.316326 262.70973 " transform="matrix(0.464428,0,0,0.464731,-4.929411,-6.015257)"/>
<path style="fill-rule:evenodd;fill:rgb(61.568627%,24.705882%,0%);fill-opacity:1;stroke-width:5;stroke-linecap:butt;stroke-linejoin:miter;stroke:rgb(0%,0%,0%);stroke-opacity:1;stroke-miterlimit:4;" d="M 175.408497 272.14058 C 189.732241 265.853347 190.430345 265.853347 190.430345 265.853347 " transform="matrix(0.464428,0,0,0.464731,-4.929411,-6.015257)"/>
<path style="fill-rule:evenodd;fill:rgb(61.568627%,24.705882%,0%);fill-opacity:1;stroke-width:5;stroke-linecap:butt;stroke-linejoin:miter;stroke:rgb(0%,0%,0%);stroke-opacity:1;stroke-miterlimit:4;" d="M 203.357882 278.78084 L 187.982776 284.723452 " transform="matrix(0.464428,0,0,0.464731,-4.929411,-6.015257)"/>
<path style="fill-rule:evenodd;fill:rgb(61.568627%,24.705882%,0%);fill-opacity:1;stroke-width:5;stroke-linecap:butt;stroke-linejoin:miter;stroke:rgb(0%,0%,0%);stroke-opacity:1;stroke-miterlimit:4;" d="M 215.587315 289.262363 L 202.659778 297.650944 " transform="matrix(0.464428,0,0,0.464731,-4.929411,-6.015257)"/>
<path style="fill-rule:evenodd;fill:rgb(61.568627%,24.705882%,0%);fill-opacity:1;stroke-width:5;stroke-linecap:butt;stroke-linejoin:miter;stroke:rgb(0%,0%,0%);stroke-opacity:1;stroke-miterlimit:4;" d="M 229.212955 300.096913 L 218.37973 307.43482 " transform="matrix(0.464428,0,0,0.464731,-4.929411,-6.015257)"/>
<path style="fill-rule:evenodd;fill:rgb(61.568627%,24.705882%,0%);fill-opacity:1;stroke-width:5;stroke-linecap:butt;stroke-linejoin:miter;stroke:rgb(0%,0%,0%);stroke-opacity:1;stroke-miterlimit:4;" d="M 244.58806 306.03112 L 234.806196 316.168023 " transform="matrix(0.464428,0,0,0.464731,-4.929411,-6.015257)"/>
<path style="fill-rule:evenodd;fill:rgb(61.568627%,24.705882%,0%);fill-opacity:1;stroke-width:5;stroke-linecap:butt;stroke-linejoin:miter;stroke:rgb(0%,0%,0%);stroke-opacity:1;stroke-miterlimit:4;" d="M 259.214597 307.829874 L 253.024182 320.664907 " transform="matrix(0.464428,0,0,0.464731,-4.929411,-6.015257)"/>
<path style="fill-rule:evenodd;fill:rgb(61.568627%,24.705882%,0%);fill-opacity:1;stroke-width:5;stroke-linecap:butt;stroke-linejoin:miter;stroke:rgb(0%,0%,0%);stroke-opacity:1;stroke-miterlimit:4;" d="M 273.588806 316.512644 L 272.537445 305.686499 " transform="matrix(0.464428,0,0,0.464731,-4.929411,-6.015257)"/>
<path style="fill-rule:evenodd;fill:rgb(75.294118%,30.196078%,0%);fill-opacity:1;stroke-width:5;stroke-linecap:butt;stroke-linejoin:miter;stroke:rgb(0%,0%,0%);stroke-opacity:1;stroke-miterlimit:4;" d="M 479.739699 290.657658 C 484.432975 286.278449 520.658675 254.237095 556.960073 296.247244 C 567.868996 308.872142 585.88512 308.300576 596.449197 303.938177 L 624.045325 303.938177 C 598.392113 319.168747 575.867751 333.256184 537.741191 299.046239 C 516.318656 279.814703 506.360164 291.565441 506.360164 291.565441 Z M 479.739699 290.657658 " transform="matrix(0.464428,0,0,0.464731,-4.929411,-6.015257)"/>
<path style="fill-rule:evenodd;fill:rgb(75.294118%,30.196078%,0%);fill-opacity:1;stroke-width:5;stroke-linecap:butt;stroke-linejoin:miter;stroke:rgb(0%,0%,0%);stroke-opacity:1;stroke-miterlimit:4;" d="M 621.606167 290.859388 C 621.606167 290.859388 627.275106 290.010443 654.332936 290.859388 C 660.565405 287.060151 668.673502 285.337045 688.338161 299.399266 C 704.68893 311.08276 730.367374 337.416853 764.439886 336.954557 C 786.753975 336.660368 816.478058 323.245362 838.708038 300.962669 C 848.313273 291.338495 869.85356 254.480852 872.250664 230.643161 L 861.652943 217.286993 C 858.482038 260.961409 808.260619 331.037161 755.776671 321.404582 C 731.881334 317.025372 691.088522 282.840644 676.806832 278.083192 L 651.305016 277.730166 C 640.74094 278.066381 629.663799 286.278449 621.606167 290.859388 Z M 621.606167 290.859388 " transform="matrix(0.464428,0,0,0.464731,-4.929411,-6.015257)"/>
<path style="fill:none;stroke-width:5;stroke-linecap:butt;stroke-linejoin:miter;stroke:rgb(0%,0%,0%);stroke-opacity:1;stroke-miterlimit:4;" d="M 502.802357 292.061359 C 502.802357 291.590657 502.802357 291.590657 502.802357 292.061359 Z M 502.802357 292.061359 " transform="matrix(0.464428,0,0,0.464731,-4.929411,-6.015257)"/>
<path style="fill-rule:evenodd;fill:rgb(61.568627%,24.705882%,0%);fill-opacity:1;stroke-width:5;stroke-linecap:butt;stroke-linejoin:miter;stroke:rgb(0%,0%,0%);stroke-opacity:1;stroke-miterlimit:4;" d="M 502.104254 278.427813 L 502.802357 290.657658 " transform="matrix(0.464428,0,0,0.464731,-4.929411,-6.015257)"/>
<path style="fill-rule:evenodd;fill:rgb(61.568627%,24.705882%,0%);fill-opacity:1;stroke-width:5;stroke-linecap:butt;stroke-linejoin:miter;stroke:rgb(0%,0%,0%);stroke-opacity:1;stroke-miterlimit:4;" d="M 513.980429 288.211689 L 516.083151 273.888902 " transform="matrix(0.464428,0,0,0.464731,-4.929411,-6.015257)"/>
<path style="fill:none;stroke-width:5;stroke-linecap:butt;stroke-linejoin:miter;stroke:rgb(0%,0%,0%);stroke-opacity:1;stroke-miterlimit:4;" d="M 536.000137 279.478487 C 536.000137 279.360812 536.000137 279.243136 536.000137 279.478487 Z M 536.000137 279.478487 " transform="matrix(0.464428,0,0,0.464731,-4.929411,-6.015257)"/>
<path style="fill-rule:evenodd;fill:rgb(61.568627%,24.705882%,0%);fill-opacity:1;stroke-width:5;stroke-linecap:butt;stroke-linejoin:miter;stroke:rgb(0%,0%,0%);stroke-opacity:1;stroke-miterlimit:4;" d="M 525.511758 291.010685 L 535.302033 279.831514 " transform="matrix(0.464428,0,0,0.464731,-4.929411,-6.015257)"/>
<path style="fill-rule:evenodd;fill:rgb(61.568627%,24.705882%,0%);fill-opacity:1;stroke-width:5;stroke-linecap:butt;stroke-linejoin:miter;stroke:rgb(0%,0%,0%);stroke-opacity:1;stroke-miterlimit:4;" d="M 538.094448 299.399266 L 551.375242 289.960011 " transform="matrix(0.464428,0,0,0.464731,-4.929411,-6.015257)"/>
<path style="fill-rule:evenodd;fill:rgb(61.568627%,24.705882%,0%);fill-opacity:1;stroke-width:5;stroke-linecap:butt;stroke-linejoin:miter;stroke:rgb(0%,0%,0%);stroke-opacity:1;stroke-miterlimit:4;" d="M 564.647625 300.794561 L 553.8144 309.527763 " transform="matrix(0.464428,0,0,0.464731,-4.929411,-6.015257)"/>
<path style="fill-rule:evenodd;fill:rgb(61.568627%,24.705882%,0%);fill-opacity:1;stroke-width:5;stroke-linecap:butt;stroke-linejoin:miter;stroke:rgb(0%,0%,0%);stroke-opacity:1;stroke-miterlimit:4;" d="M 571.990332 318.958613 L 580.022731 306.03112 " transform="matrix(0.464428,0,0,0.464731,-4.929411,-6.015257)"/>
<path style="fill-rule:evenodd;fill:rgb(61.568627%,24.705882%,0%);fill-opacity:1;stroke-width:5;stroke-linecap:butt;stroke-linejoin:miter;stroke:rgb(0%,0%,0%);stroke-opacity:1;stroke-miterlimit:4;" d="M 591.907317 305.333472 L 592.252164 320.009287 " transform="matrix(0.464428,0,0,0.464731,-4.929411,-6.015257)"/>
<path style="fill-rule:evenodd;fill:rgb(61.568627%,24.705882%,0%);fill-opacity:1;stroke-width:5;stroke-linecap:butt;stroke-linejoin:miter;stroke:rgb(0%,0%,0%);stroke-opacity:1;stroke-miterlimit:4;" d="M 606.231061 313.369027 C 606.003967 313.150487 605.524547 312.662974 606.231061 313.369027 Z M 606.231061 313.369027 " transform="matrix(0.464428,0,0,0.464731,-4.929411,-6.015257)"/>
<path style="fill-rule:evenodd;fill:rgb(61.568627%,24.705882%,0%);fill-opacity:1;stroke-width:5;stroke-linecap:butt;stroke-linejoin:miter;stroke:rgb(0%,0%,0%);stroke-opacity:1;stroke-miterlimit:4;" d="M 605.1797 303.585151 L 605.877804 312.67138 " transform="matrix(0.464428,0,0,0.464731,-4.929411,-6.015257)"/>
<path style="fill:none;stroke-width:5;stroke-linecap:butt;stroke-linejoin:round;stroke:rgb(0%,0%,0%);stroke-opacity:1;stroke-miterlimit:4;" d="M 646.763136 279.125461 C 647.17527 279.024596 647.107983 284.101453 647.107983 285.421099 C 647.107983 287.278691 647.107983 289.144688 647.107983 291.010685 " transform="matrix(0.464428,0,0,0.464731,-4.929411,-6.015257)"/>
<path style="fill:none;stroke-width:5;stroke-linecap:butt;stroke-linejoin:round;stroke:rgb(0%,0%,0%);stroke-opacity:1;stroke-miterlimit:4;" d="M 660.481296 277.032518 L 656.990777 288.564716 " transform="matrix(0.464428,0,0,0.464731,-4.929411,-6.015257)"/>
<path style="fill:none;stroke-width:5.36638;stroke-linecap:butt;stroke-linejoin:round;stroke:rgb(0%,0%,0%);stroke-opacity:1;stroke-miterlimit:4;" d="M 676.97505 279.310379 L 669.161334 288.816877 " transform="matrix(0.464428,0,0,0.464731,-4.929411,-6.015257)"/>
<path style="fill:none;stroke-width:5;stroke-linecap:butt;stroke-linejoin:round;stroke:rgb(0%,0%,0%);stroke-opacity:1;stroke-miterlimit:4;" d="M 692.181938 286.816394 L 681.70197 294.154301 " transform="matrix(0.464428,0,0,0.464731,-4.929411,-6.015257)"/>
<path style="fill:none;stroke-width:5;stroke-linecap:butt;stroke-linejoin:round;stroke:rgb(0%,0%,0%);stroke-opacity:1;stroke-miterlimit:4;" d="M 704.41137 294.154301 L 694.28466 303.24053 " transform="matrix(0.464428,0,0,0.464731,-4.929411,-6.015257)"/>
<path style="fill:none;stroke-width:5;stroke-linecap:butt;stroke-linejoin:round;stroke:rgb(0%,0%,0%);stroke-opacity:1;stroke-miterlimit:4;" d="M 718.037011 303.938177 L 706.160835 311.973732 " transform="matrix(0.464428,0,0,0.464731,-4.929411,-6.015257)"/>
<path style="fill:none;stroke-width:4.59127;stroke-linecap:butt;stroke-linejoin:round;stroke:rgb(0%,0%,0%);stroke-opacity:1;stroke-miterlimit:4;" d="M 720.980822 322.312364 L 731.64583 312.511677 " transform="matrix(0.464428,0,0,0.464731,-4.929411,-6.015257)"/>
<path style="fill:none;stroke-width:5;stroke-linecap:butt;stroke-linejoin:round;stroke:rgb(0%,0%,0%);stroke-opacity:1;stroke-miterlimit:4;" d="M 746.69291 317.916344 L 737.255893 331.188458 " transform="matrix(0.464428,0,0,0.464731,-4.929411,-6.015257)"/>
<path style="fill:none;stroke-width:5;stroke-linecap:butt;stroke-linejoin:round;stroke:rgb(0%,0%,0%);stroke-opacity:1;stroke-miterlimit:4;" d="M 761.714758 322.808282 C 761.605417 322.833498 761.487664 322.808282 761.714758 322.808282 Z M 761.714758 322.808282 " transform="matrix(0.464428,0,0,0.464731,-4.929411,-6.015257)"/>
<path style="fill:none;stroke-width:5;stroke-linecap:butt;stroke-linejoin:round;stroke:rgb(0%,0%,0%);stroke-opacity:1;stroke-miterlimit:4;" d="M 754.027206 335.038127 L 762.766119 322.455256 " transform="matrix(0.464428,0,0,0.464731,-4.929411,-6.015257)"/>
<path style="fill:none;stroke-width:5;stroke-linecap:butt;stroke-linejoin:round;stroke:rgb(0%,0%,0%);stroke-opacity:1;stroke-miterlimit:4;" d="M 778.486071 320.706934 Z M 778.486071 320.706934 " transform="matrix(0.464428,0,0,0.464731,-4.929411,-6.015257)"/>
<path style="fill:none;stroke-width:5;stroke-linecap:butt;stroke-linejoin:round;stroke:rgb(0%,0%,0%);stroke-opacity:1;stroke-miterlimit:4;" d="M 773.944191 335.382748 C 773.83485 335.41637 773.944191 335.155803 773.944191 335.382748 Z M 773.944191 335.382748 " transform="matrix(0.464428,0,0,0.464731,-4.929411,-6.015257)"/>
<path style="fill:none;stroke-width:5;stroke-linecap:butt;stroke-linejoin:round;stroke:rgb(0%,0%,0%);stroke-opacity:1;stroke-miterlimit:4;" d="M 779.184175 319.664666 L 774.642295 335.382748 " transform="matrix(0.464428,0,0,0.464731,-4.929411,-6.015257)"/>
<path style="fill:none;stroke-width:5;stroke-linecap:butt;stroke-linejoin:round;stroke:rgb(0%,0%,0%);stroke-opacity:1;stroke-miterlimit:4;" d="M 798.05821 313.722053 L 797.006849 328.742489 " transform="matrix(0.464428,0,0,0.464731,-4.929411,-6.015257)"/>
<path style="fill:none;stroke-width:5;stroke-linecap:butt;stroke-linejoin:round;stroke:rgb(0%,0%,0%);stroke-opacity:1;stroke-miterlimit:4;" d="M 818.6733 315.117349 Z M 818.6733 315.117349 " transform="matrix(0.464428,0,0,0.464731,-4.929411,-6.015257)"/>
<path style="fill:none;stroke-width:5;stroke-linecap:butt;stroke-linejoin:round;stroke:rgb(0%,0%,0%);stroke-opacity:1;stroke-miterlimit:4;" d="M 814.131419 302.542882 L 818.875161 316.42859 " transform="matrix(0.464428,0,0,0.464731,-4.929411,-6.015257)"/>
<path style="fill:none;stroke-width:5.58303;stroke-linecap:butt;stroke-linejoin:round;stroke:rgb(0%,0%,0%);stroke-opacity:1;stroke-miterlimit:4;" d="M 829.094391 289.901173 L 835.932444 302.105802 " transform="matrix(0.464428,0,0,0.464731,-4.929411,-6.015257)"/>
<path style="fill:none;stroke-width:5;stroke-linecap:butt;stroke-linejoin:round;stroke:rgb(0%,0%,0%);stroke-opacity:1;stroke-miterlimit:4;" d="M 848.716996 285.76572 L 840.684597 273.191254 " transform="matrix(0.464428,0,0,0.464731,-4.929411,-6.015257)"/>
<path style="fill:none;stroke-width:5;stroke-linecap:butt;stroke-linejoin:round;stroke:rgb(0%,0%,0%);stroke-opacity:1;stroke-miterlimit:4;" d="M 858.507271 266.550994 L 850.121614 256.767118 " transform="matrix(0.464428,0,0,0.464731,-4.929411,-6.015257)"/>
<path style="fill:none;stroke-width:5;stroke-linecap:butt;stroke-linejoin:round;stroke:rgb(0%,0%,0%);stroke-opacity:1;stroke-miterlimit:4;" d="M 858.154013 241.04063 L 867.473279 247.622052 " transform="matrix(0.464428,0,0,0.464731,-4.929411,-6.015257)"/>
<path style="fill-rule:evenodd;fill:rgb(75.294118%,30.196078%,0%);fill-opacity:1;stroke-width:5;stroke-linecap:butt;stroke-linejoin:round;stroke:rgb(0%,0%,0%);stroke-opacity:1;stroke-miterlimit:4;" d="M 871.586203 185.741557 C 879.980271 198.265591 884.219359 204.065312 902.227073 220.581906 C 898.98888 219.943097 896.272163 218.95126 893.87506 217.757695 C 891.469545 216.555724 889.383645 213.420513 887.398675 211.932758 C 890.140625 216.791075 892.075129 221.649391 892.832109 226.507708 C 889.047209 222.969038 885.901537 220.069178 881.468998 215.883292 C 884.623082 223.372497 883.622186 225.650358 884.438042 230.214486 C 874.731876 221.044203 865.992962 211.54611 860.223092 201.064587 Z M 871.586203 185.741557 " transform="matrix(0.464428,0,0,0.464731,-4.929411,-6.015257)"/>
<path style="fill-rule:evenodd;fill:rgb(61.568627%,24.705882%,0%);fill-opacity:0.996078;stroke-width:5;stroke-linecap:butt;stroke-linejoin:miter;stroke:rgb(0%,0%,0%);stroke-opacity:1;stroke-miterlimit:4;" d="M 884.143661 200.854452 L 864.218264 202.258152 " transform="matrix(0.464428,0,0,0.464731,-4.929411,-6.015257)"/>
<path style="fill-rule:evenodd;fill:rgb(61.568627%,24.705882%,0%);fill-opacity:0.996078;stroke-width:5;stroke-linecap:butt;stroke-linejoin:miter;stroke:rgb(0%,0%,0%);stroke-opacity:1;stroke-miterlimit:4;" d="M 892.571372 211.041787 L 873.579584 217.270182 " transform="matrix(0.464428,0,0,0.464731,-4.929411,-6.015257)"/>
<path style="fill-rule:evenodd;fill:rgb(75.294118%,30.196078%,0%);fill-opacity:1;stroke-width:5;stroke-linecap:butt;stroke-linejoin:miter;stroke:rgb(0%,0%,0%);stroke-opacity:1;stroke-miterlimit:4;" d="M 869.441427 162.542676 C 874.664589 159.970626 881.914775 170.191582 876.607504 176.377951 C 870.686238 183.287183 862.468799 205.166418 875.371103 226.037006 C 879.601781 232.878995 869.870382 239.384768 861.291275 228.508191 C 847.875907 211.504083 854.957875 169.670448 869.441427 162.542676 Z M 869.441427 162.542676 " transform="matrix(0.464428,0,0,0.464731,-4.929411,-6.015257)"/>
<path style="fill-rule:evenodd;fill:rgb(61.568627%,24.705882%,0%);fill-opacity:0.996078;stroke-width:5;stroke-linecap:butt;stroke-linejoin:miter;stroke:rgb(0%,0%,0%);stroke-opacity:1;stroke-miterlimit:4;" d="M 862.771591 168.720639 L 873.394544 180.084729 " transform="matrix(0.464428,0,0,0.464731,-4.929411,-6.015257)"/>
<path style="fill-rule:evenodd;fill:rgb(61.568627%,24.705882%,0%);fill-opacity:0.996078;stroke-width:5;stroke-linecap:butt;stroke-linejoin:miter;stroke:rgb(0%,0%,0%);stroke-opacity:1;stroke-miterlimit:4;" d="M 868.457353 194.415922 L 857.338157 187.742041 " transform="matrix(0.464428,0,0,0.464731,-4.929411,-6.015257)"/>
<path style="fill-rule:evenodd;fill:rgb(61.568627%,24.705882%,0%);fill-opacity:0.996078;stroke-width:5.09605;stroke-linecap:butt;stroke-linejoin:miter;stroke:rgb(0%,0%,0%);stroke-opacity:1;stroke-miterlimit:4;" d="M 869.147045 211.907542 C 868.087273 211.672191 855.655979 208.797547 855.655979 208.797547 " transform="matrix(0.464428,0,0,0.464731,-4.929411,-6.015257)"/>
<path style="fill-rule:evenodd;fill:rgb(61.568627%,24.705882%,0%);fill-opacity:0.996078;stroke-width:5;stroke-linecap:butt;stroke-linejoin:miter;stroke:rgb(0%,0%,0%);stroke-opacity:1;stroke-miterlimit:4;" d="M 873.150629 223.322064 L 858.574558 222.58239 " transform="matrix(0.464428,0,0,0.464731,-4.929411,-6.015257)"/>
<path style="fill-rule:nonzero;fill:rgb(100%,87.843137%,12.156863%);fill-opacity:1;stroke-width:5;stroke-linecap:butt;stroke-linejoin:round;stroke:rgb(0%,0%,0%);stroke-opacity:1;stroke-miterlimit:4;" d="M 153.750457 101.654017 C 116.717313 101.654017 85.992334 127.996515 80.314984 162.433406 L 227.185931 162.433406 C 221.50858 127.996515 190.783602 101.654017 153.750457 101.654017 Z M 153.750457 101.654017 " transform="matrix(0.464428,0,0,0.464731,-4.929411,-6.015257)"/>
<path style="fill-rule:evenodd;fill:rgb(92.156863%,0%,0%);fill-opacity:1;stroke-width:5;stroke-linecap:butt;stroke-linejoin:miter;stroke:rgb(0%,0%,0%);stroke-opacity:1;stroke-miterlimit:4;" d="M 85.605434 145.303217 C 130.856017 137.654311 179.294328 137.696338 222.282382 147.152403 C 224.755184 150.943235 225.520575 155.583011 226.765386 159.979031 L 81.416811 159.281384 C 81.870999 154.624797 82.417707 149.959804 85.605434 145.303217 Z M 85.605434 145.303217 " transform="matrix(0.464428,0,0,0.464731,-4.929411,-6.015257)"/>
<path style="fill-rule:evenodd;fill:rgb(100%,87.843137%,12.156863%);fill-opacity:1;stroke-width:5;stroke-linecap:butt;stroke-linejoin:miter;stroke:rgb(0%,0%,0%);stroke-opacity:1;stroke-miterlimit:4;" d="M 34.063505 172.906524 C 136.541778 194.214192 225.823367 189.843389 270.796391 170.813581 C 201.499075 139.478281 80.390682 144.639191 34.063505 172.906524 Z M 34.063505 172.906524 " transform="matrix(0.464428,0,0,0.464731,-4.929411,-6.015257)"/>
<path style="fill-rule:evenodd;fill:rgb(100%,100%,100%);fill-opacity:1;stroke-width:4;stroke-linecap:butt;stroke-linejoin:miter;stroke:rgb(0%,0%,0%);stroke-opacity:1;stroke-miterlimit:4;" d="M 128.585077 246.285595 L 119.846163 258.860061 C 141.621955 265.626401 164.449108 266.466941 186.233311 259.213087 L 178.545759 244.8903 Z M 128.585077 246.285595 " transform="matrix(0.464428,0,0,0.464731,-4.929411,-6.015257)"/>
<path style="fill-rule:evenodd;fill:rgb(100%,100%,100%);fill-opacity:1;stroke-width:4;stroke-linecap:butt;stroke-linejoin:miter;stroke:rgb(0%,0%,0%);stroke-opacity:1;stroke-miterlimit:4;" d="M 147.450701 264.458052 L 148.148805 248.731564 " transform="matrix(0.464428,0,0,0.464731,-4.929411,-6.015257)"/>
<path style="fill-rule:evenodd;fill:rgb(100%,100%,100%);fill-opacity:1;stroke-width:4;stroke-linecap:butt;stroke-linejoin:miter;stroke:rgb(0%,0%,0%);stroke-opacity:1;stroke-miterlimit:4;" d="M 159.335288 264.458052 L 159.680134 249.429211 " transform="matrix(0.464428,0,0,0.464731,-4.929411,-6.015257)"/>
<path style="fill-rule:evenodd;fill:rgb(100%,100%,100%);fill-opacity:1;stroke-width:4;stroke-linecap:butt;stroke-linejoin:miter;stroke:rgb(0%,0%,0%);stroke-opacity:1;stroke-miterlimit:4;" d="M 171.564721 250.126859 L 174.701982 263.054351 " transform="matrix(0.464428,0,0,0.464731,-4.929411,-6.015257)"/>
<path style="fill-rule:evenodd;fill:rgb(100%,100%,100%);fill-opacity:1;stroke-width:4;stroke-linecap:butt;stroke-linejoin:miter;stroke:rgb(0%,0%,0%);stroke-opacity:1;stroke-miterlimit:4;" d="M 132.075596 262.356704 L 136.617476 247.336269 " transform="matrix(0.464428,0,0,0.464731,-4.929411,-6.015257)"/>
<path style="fill-rule:evenodd;fill:rgb(100%,100%,100%);fill-opacity:1;stroke-width:5;stroke-linecap:butt;stroke-linejoin:miter;stroke:rgb(0%,0%,0%);stroke-opacity:1;stroke-miterlimit:4;" d="M 79.667346 176.050141 C 83.241974 164.938212 99.432935 161.265056 153.742047 160.760733 C 208.042747 160.264815 226.428951 163.324377 228.514851 174.301819 C 231.492306 189.977875 217.597517 252.925854 153.742047 252.925854 C 89.533319 252.925854 75.159109 190.087145 79.667346 176.050141 Z M 79.667346 176.050141 " transform="matrix(0.464428,0,0,0.464731,-4.929411,-6.015257)"/>
<path style=" stroke:none;fill-rule:nonzero;fill:rgb(0%,0%,0%);fill-opacity:0.992157;" d="M 61.929688 87.492188 C 61.929688 93.503906 57.0625 98.375 51.054688 98.375 C 45.050781 98.375 40.183594 93.503906 40.183594 87.492188 C 40.183594 81.484375 45.050781 76.613281 51.054688 76.613281 C 57.0625 76.613281 61.929688 81.484375 61.929688 87.492188 Z M 61.929688 87.492188 "/>
<path style=" stroke:none;fill-rule:nonzero;fill:rgb(0%,0%,0%);fill-opacity:0.992157;" d="M 92.761719 87.492188 C 92.761719 93.503906 87.894531 98.375 81.886719 98.375 C 75.882812 98.375 71.015625 93.503906 71.015625 87.492188 C 71.015625 81.484375 75.882812 76.613281 81.886719 76.613281 C 87.894531 76.613281 92.761719 81.484375 92.761719 87.492188 Z M 92.761719 87.492188 "/>
<path style=" stroke:none;fill-rule:nonzero;fill:rgb(0%,0%,0%);fill-opacity:0.992157;" d="M 70.855469 101.132812 C 70.855469 103.554688 68.890625 105.519531 66.472656 105.519531 C 64.050781 105.519531 62.089844 103.554688 62.089844 101.132812 C 62.089844 98.710938 64.050781 96.75 66.472656 96.75 C 68.890625 96.75 70.855469 98.710938 70.855469 101.132812 Z M 70.855469 101.132812 "/>
</g>
</svg>
